<?xml version="1.0" standalone="no"?>
<!DOCTYPE svg PUBLIC "-//W3C//DTD SVG 20010904//EN"
 "http://www.w3.org/TR/2001/REC-SVG-20010904/DTD/svg10.dtd">
<svg version="1.0" xmlns="http://www.w3.org/2000/svg"
 width="411.000000pt" height="411.000000pt" viewBox="0 0 411.000000 411.000000"
 preserveAspectRatio="xMidYMid meet">
<metadata>
Created by potrace 1.14, written by Peter Selinger 2001-2017
</metadata>
<g transform="translate(0.000000,411.000000) scale(0.100000,-0.100000)"
fill="#000000" stroke="none">
<path d="M1885 3874 c-434 -61 -765 -216 -1057 -493 -277 -263 -454 -580 -534
-955 -22 -100 -27 -154 -29 -306 -5 -261 18 -421 90 -638 220 -658 802 -1131
1499 -1217 755 -94 1491 302 1836 987 63 123 136 328 147 406 3 26 10 56 16
66 17 34 37 209 35 321 l-1 110 -8 -129 c-8 -131 -16 -192 -27 -211 -4 -5 -7
-14 -8 -20 -1 -5 -12 -34 -23 -64 -19 -46 -19 -52 -5 -47 8 3 14 3 12 -1 -18
-37 -58 -129 -101 -233 -28 -69 -71 -160 -96 -202 -47 -81 -69 -103 -26 -26
78 140 159 368 191 540 22 118 29 374 15 494 -74 601 -434 1111 -976 1382
-122 61 -216 95 -360 133 -145 37 -109 37 95 -1 142 -27 198 -40 280 -66 8 -3
-1 4 -21 15 -61 34 -268 101 -394 127 -100 21 -153 26 -320 29 -110 2 -213 1
-230 -1z m468 -71 c-7 -2 -19 -2 -25 0 -7 3 -2 5 12 5 14 0 19 -2 13 -5z m70
-170 c-7 -2 -21 -2 -30 0 -10 3 -4 5 12 5 17 0 24 -2 18 -5z m-43 -188 c38
-26 76 -63 55 -54 -5 3 -37 17 -70 33 -83 38 -88 41 -92 53 -7 19 65 -3 107
-32z m329 -50 c24 -12 36 -26 46 -55 1 -3 4 -12 8 -20 12 -31 18 -150 7 -150
-5 0 -10 20 -10 44 0 25 -4 48 -10 51 -6 4 -10 -10 -10 -36 0 -41 0 -42 -20
-24 -15 13 -17 22 -9 36 7 15 6 19 -6 19 -8 0 -15 -6 -15 -14 0 -10 -16 -4
-51 20 -28 19 -55 34 -60 34 -15 0 -10 19 11 40 11 11 32 20 48 21 26 0 26 1
5 9 -29 12 -20 40 14 40 13 0 37 -7 52 -15z m-1589 -95 c26 -14 37 -86 16
-109 -33 -37 -22 -45 58 -41 28 1 37 -2 34 -12 -4 -9 -30 -13 -101 -14 -54 0
-97 1 -97 4 0 9 28 30 46 35 49 12 -78 5 -156 -9 -76 -14 -89 -19 -99 -41 -7
-14 -18 -23 -28 -21 -25 5 -28 28 -3 28 12 0 18 5 15 10 -3 6 -1 10 5 10 7 0
36 22 66 49 59 52 139 100 188 112 17 4 32 7 34 8 2 1 12 -3 22 -9z m228 -95
c-3 -3 -13 -2 -22 1 -14 5 -15 9 -4 15 13 8 36 -6 26 -16z m1186 -76 c-3 -5
-9 -7 -14 -4 -5 3 -11 1 -15 -5 -3 -5 1 -10 10 -10 27 0 97 -82 108 -127 7
-32 29 37 25 83 -2 34 0 40 12 33 16 -8 62 -27 117 -48 50 -20 67 -44 59 -89
-7 -46 1 -57 68 -102 64 -43 94 -75 137 -149 20 -33 39 -58 42 -54 11 10 48
-88 39 -103 -7 -12 -11 -10 -20 11 -7 14 -16 23 -22 20 -11 -7 -102 38 -127
63 -10 10 -26 22 -35 25 -29 10 -9 -21 48 -77 55 -54 93 -81 101 -72 3 3 12
-2 21 -10 12 -13 13 -17 2 -24 -9 -6 -8 -10 6 -19 13 -7 15 -13 8 -18 -6 -5
-14 -17 -18 -27 -6 -18 -8 -18 -24 4 -9 14 -26 42 -38 65 -18 35 -46 55 -43
32 0 -4 -6 -19 -15 -32 -11 -16 -12 -26 -5 -30 6 -4 8 -13 5 -20 -2 -7 1 -18
7 -24 17 -17 4 -13 -50 13 -43 21 -123 41 -123 31 0 -3 24 -16 53 -29 51 -25
122 -86 99 -86 -16 0 -32 -65 -32 -130 l-1 -55 -20 35 c-11 19 -17 26 -15 15
3 -11 8 -32 11 -47 5 -18 0 -42 -16 -73 l-23 -46 -16 58 c-22 80 -43 115 -90
156 -56 47 -135 71 -237 70 -72 -1 -90 -5 -152 -35 -45 -21 -65 -27 -55 -16 9
9 13 22 9 27 -3 6 7 25 24 41 34 34 32 37 -7 13 -23 -14 -21 -10 11 23 20 22
37 44 37 49 0 5 -5 4 -12 -3 -20 -20 -28 -13 -17 15 6 16 6 29 1 31 -5 1 -7
15 -4 30 l5 27 -21 -25 c-31 -37 -27 -13 5 29 15 19 28 42 30 50 1 8 8 18 15
22 7 5 8 9 3 9 -6 0 -32 -18 -59 -40 -65 -54 -69 -53 -24 12 11 16 16 33 12
39 -4 7 -3 9 4 5 6 -3 13 -2 16 3 3 5 -1 11 -9 14 -16 7 -65 -46 -65 -69 0 -8
-4 -14 -10 -14 -19 0 -9 25 25 64 40 43 43 58 17 84 -10 10 -15 25 -12 33 4 8
14 36 23 62 13 41 13 48 1 43 -17 -7 -13 28 14 128 12 48 17 55 23 38 5 -13
16 -20 28 -19 21 1 30 17 10 17 -6 0 -9 6 -6 14 6 14 -15 40 -25 31 -2 -3 -3
9 0 25 2 17 8 33 13 36 13 8 49 -57 49 -90 0 -41 -21 -106 -35 -106 -11 0 -55
-45 -55 -57 0 -3 8 1 18 9 30 26 42 31 36 14 -3 -9 -2 -16 3 -16 5 0 19 28 31
63 24 66 29 146 12 178 -8 14 -7 19 1 19 15 0 38 -30 39 -51 0 -9 11 -21 25
-27 36 -17 44 -15 38 8 -3 11 -9 20 -13 20 -16 0 -19 30 -4 45 16 16 39 11 28
-6z m-1774 -120 c0 -5 3 -8 8 -7 4 2 18 -9 33 -22 14 -14 38 -35 53 -48 16
-13 25 -29 22 -38 -3 -8 -3 -14 0 -14 2 0 9 11 14 25 8 21 16 25 47 25 33 0
38 -3 38 -24 0 -20 -6 -25 -40 -31 -22 -4 -53 -7 -70 -6 -16 1 -66 2 -110 2
-65 0 -82 3 -97 18 -15 17 -15 20 -2 25 8 3 21 21 29 39 16 38 38 60 50 49 5
-4 5 1 2 10 -4 12 -2 15 9 11 7 -3 14 -9 14 -14z m212 -42 c-33 -33 -56 -30
-43 6 6 15 15 21 31 19 14 -2 20 0 16 7 -5 7 -1 8 9 4 14 -5 12 -10 -13 -36z
m1318 -140 c0 -8 -14 -42 -32 -78 -41 -82 -51 -53 -11 31 27 58 43 75 43 47z
m802 -123 c11 -32 12 -42 4 -33 -16 17 -38 79 -28 79 4 0 15 -21 24 -46z m64
-57 c3 -18 7 -43 9 -57 3 -17 -2 -12 -15 15 -20 44 -28 126 -9 92 6 -11 13
-33 15 -50z m-906 -91 c0 -3 -4 -8 -10 -11 -5 -3 -10 -1 -10 4 0 6 5 11 10 11
6 0 10 -2 10 -4z m1030 -290 c0 -2 -8 -10 -17 -17 -16 -13 -17 -12 -4 4 13 16
21 21 21 13z m79 -29 c10 6 24 8 31 3 18 -11 4 -44 -15 -36 -8 3 -15 1 -15 -4
0 -5 -9 -11 -20 -14 -64 -19 -60 -20 -54 16 10 60 12 63 35 42 16 -14 24 -16
38 -7z m-89 -67 c0 -5 -4 -10 -10 -10 -5 0 -10 5 -10 10 0 6 5 10 10 10 6 0
10 -4 10 -10z m-139 -50 c-24 -11 -48 -20 -55 -19 -15 1 65 37 84 38 8 0 -5
-8 -29 -19z m-1431 -109 c0 -17 -15 -19 -28 -5 -11 12 -9 14 8 14 11 0 20 -4
20 -9z m-45 -11 c3 -5 1 -10 -4 -10 -6 0 -11 5 -11 10 0 6 2 10 4 10 3 0 8 -4
11 -10z m1795 0 c0 -5 -5 -10 -11 -10 -5 0 -7 5 -4 10 3 6 8 10 11 10 2 0 4
-4 4 -10z m-1997 -27 c-17 -27 -17 -27 0 -14 16 12 17 12 11 -5 -4 -13 3 -9
21 11 l27 30 -20 -30 c-11 -16 -22 -39 -26 -50 -3 -11 -20 -35 -37 -53 -31
-33 -34 -57 -4 -32 22 18 32 4 12 -17 -13 -16 -14 -25 -2 -73 7 -30 14 -49 14
-42 1 7 5 11 9 8 16 -10 38 29 31 54 -12 42 -10 87 5 117 8 15 21 45 30 65
l16 38 70 -2 c38 -1 70 -6 70 -10 0 -4 -6 -5 -12 -3 -8 3 -14 -5 -15 -21 0
-15 -5 -29 -11 -33 -14 -9 -33 -48 -68 -136 -34 -86 -63 -117 -113 -119 -22
-1 -31 -6 -31 -18 0 -26 -37 -42 -67 -29 -33 15 -73 14 -123 -4 -43 -15 -127
-20 -166 -9 -16 4 -28 24 -44 67 -29 80 -28 120 4 168 61 91 176 123 277 77
l54 -25 22 26 c12 14 33 41 48 59 33 39 42 42 18 5z m318 7 c24 -11 53 -20 64
-20 26 0 163 -135 181 -177 8 -17 18 -34 24 -38 5 -3 10 -11 10 -17 0 -7 -6
-6 -15 2 -10 8 -15 9 -15 2 0 -6 16 -19 35 -28 20 -9 43 -26 53 -38 12 -15 28
-21 57 -21 33 0 40 -3 40 -20 0 -22 -26 -31 -53 -19 -9 4 -21 6 -25 5 -14 -3
-90 42 -125 73 -23 22 -35 27 -43 19 -16 -16 -1 -53 21 -53 16 0 40 -26 40
-43 0 -5 -82 12 -89 18 -2 3 2 11 9 20 15 18 7 19 -19 4 -36 -23 -67 -3 -99
64 -23 47 -36 63 -51 63 -15 0 -21 -7 -21 -23 0 -13 -8 -31 -19 -42 -10 -10
-21 -35 -25 -56 -4 -21 -11 -34 -14 -28 -4 5 -17 16 -30 22 -23 12 -23 12 -6
-14 23 -36 12 -41 -42 -20 l-47 18 29 12 c27 11 28 12 9 23 -20 11 -20 11 2
52 19 35 19 40 5 40 -13 0 -11 6 10 25 17 15 28 39 33 67 6 44 34 108 46 108
4 0 5 9 2 20 -7 26 12 26 68 0z m1649 9 c0 -6 -7 -9 -15 -5 -8 3 -15 1 -15 -4
0 -6 -5 -10 -11 -10 -8 0 -8 5 1 15 15 17 40 20 40 4z m-1385 -79 c10 -11 16
-20 13 -20 -3 0 -13 9 -23 20 -10 11 -16 20 -13 20 3 0 13 -9 23 -20z m1251 5
c90 -26 163 -132 149 -215 l-6 -35 -82 0 c-63 -1 -93 -6 -128 -22 -109 -51
-209 -17 -209 71 0 43 29 118 58 149 29 32 100 63 153 66 8 1 38 -6 65 -14z
m-1187 -88 c16 -24 26 -48 23 -53 -4 -6 -19 14 -33 43 -14 29 -24 53 -23 53 2
0 16 -19 33 -43z m-1187 -54 c22 -20 23 -39 3 -47 -22 -8 -41 2 -53 29 -17 37
15 50 50 18z m-174 -15 c4 -21 -32 -41 -58 -33 -22 7 -27 40 -7 49 24 10 62 1
65 -16z m-98 -82 c0 -20 -26 -40 -35 -26 -10 16 2 40 20 40 8 0 15 -6 15 -14z
m1234 -118 c-5 -8 -2 -9 9 -5 11 4 17 1 17 -8 0 -8 -7 -15 -15 -15 -8 0 -15 2
-15 4 0 2 -3 11 -6 20 -3 9 -1 16 6 16 6 0 8 -5 4 -12z m125 -14 c12 -11 11
-12 -10 -7 -35 9 -17 -6 20 -17 25 -7 33 -6 38 6 3 7 15 14 27 14 21 -1 21 -1
2 -15 -20 -15 -20 -15 0 -15 23 0 58 20 35 20 -30 0 0 13 40 16 33 3 42 0 46
-15 6 -24 39 -33 57 -16 15 15 72 14 69 -1 -2 -11 47 -12 64 -1 6 4 14 3 18
-3 3 -5 16 -10 28 -10 18 0 20 2 7 11 -12 9 -11 10 8 6 12 -3 25 0 30 6 9 15
28 18 136 19 77 1 91 -2 105 -19 17 -21 46 -22 96 -3 23 9 26 13 15 20 -11 7
-8 10 13 10 15 0 36 -6 47 -12 17 -11 22 -10 30 2 6 9 10 10 10 3 0 -6 12 -14
28 -16 15 -2 3 -5 -25 -6 -30 0 -53 3 -53 9 0 16 -19 12 -41 -9 -20 -18 -20
-18 3 -25 13 -4 133 -10 268 -13 259 -6 290 -12 290 -55 0 -15 -5 -18 -22 -14
-13 3 -17 3 -10 0 19 -9 14 -26 -5 -20 -18 6 -45 -6 -44 -18 3 -24 0 -28 -13
-17 -10 8 -16 9 -21 1 -3 -5 -2 -10 3 -10 19 0 7 -29 -15 -35 -12 -3 -23 -10
-23 -15 0 -5 -7 -7 -17 -3 -12 5 -15 2 -11 -14 4 -16 1 -19 -19 -15 -20 4 -24
1 -21 -14 2 -11 12 -20 23 -20 39 -3 40 -5 17 -24 -13 -10 -25 -28 -27 -40 -3
-18 -1 -19 18 -9 33 18 146 98 200 143 26 21 50 37 53 33 3 -3 -5 -13 -19 -21
-13 -9 -36 -41 -51 -70 -15 -30 -34 -57 -42 -60 -9 -3 -12 -11 -9 -16 4 -6 -5
-26 -19 -45 -14 -18 -26 -40 -26 -47 0 -7 -15 -26 -34 -42 -19 -15 -37 -38
-41 -50 -7 -22 -168 -175 -226 -214 -65 -44 -144 -91 -214 -126 l-70 -36 48 0
c26 0 47 -4 47 -10 0 -5 -6 -10 -14 -10 -8 0 -36 -11 -63 -24 -72 -36 -208
-83 -292 -101 -40 -8 -78 -18 -83 -21 -12 -8 -49 -11 -218 -19 -141 -7 -357
17 -490 54 -56 16 -203 67 -225 78 -27 14 -59 28 -120 52 l-50 20 85 -5 85 -4
-40 15 c-55 21 -105 48 -105 57 0 4 -7 5 -15 2 -8 -4 -15 -1 -15 5 0 6 -5 11
-10 11 -6 0 -41 23 -78 50 -37 28 -77 59 -90 68 -35 25 -82 74 -82 83 0 5 -5
9 -12 9 -16 0 -58 41 -58 56 0 7 -7 17 -16 22 -28 15 -122 132 -129 159 -3 14
-14 33 -24 42 -23 21 -43 69 -31 76 5 3 95 8 202 11 106 4 204 11 218 17 14 6
28 11 32 11 15 2 18 14 3 19 -8 4 -15 2 -15 -4 0 -6 -4 -8 -8 -5 -5 3 -45 6
-90 7 -45 1 -94 4 -107 7 l-25 4 41 45 c22 24 45 57 50 73 l10 28 157 1 c228
2 374 11 388 22 7 6 11 16 8 23 -3 8 4 16 15 19 16 4 21 0 21 -16 l0 -21 20
21 c12 13 27 19 39 16 16 -4 17 -8 8 -18 -7 -7 -18 -10 -24 -8 -7 3 -13 3 -13
0 0 -3 24 -13 54 -21 59 -18 176 -27 176 -14 0 4 -7 8 -15 8 -8 0 -15 3 -15 8
0 4 25 6 55 6 43 -1 55 2 55 13 0 11 -7 14 -25 11 -21 -4 -23 -3 -14 14 11 20
52 16 78 -8z m114 19 c-7 -2 -19 -2 -25 0 -7 3 -2 5 12 5 14 0 19 -2 13 -5z
m84 1 c-3 -3 -12 -4 -19 -1 -8 3 -5 6 6 6 11 1 17 -2 13 -5z m778 -4 c-3 -5
-11 -10 -16 -10 -6 0 -7 5 -4 10 3 6 11 10 16 10 6 0 7 -4 4 -10z m445 -101
c0 -4 -7 -6 -15 -3 -8 4 -15 10 -15 15 0 4 7 6 15 3 8 -4 15 -10 15 -15z
m-135 -159 c3 -5 1 -10 -4 -10 -6 0 -11 5 -11 10 0 6 2 10 4 10 3 0 8 -4 11
-10z"/>
<path d="M2360 3106 c0 -2 7 -9 15 -16 13 -11 14 -10 9 4 -5 14 -24 23 -24 12z"/>
<path d="M2698 3028 c-3 -30 -2 -25 -41 -120 -26 -62 -4 -43 25 21 34 75 44
111 29 111 -6 0 -12 -6 -13 -12z"/>
<path d="M2377 2864 c-4 -4 -7 -17 -7 -28 1 -19 1 -20 11 -3 11 19 8 43 -4 31z"/>
<path d="M2675 2846 c-50 -12 -95 -35 -95 -47 0 -4 -16 -6 -35 -4 -37 4 -97
-19 -73 -28 24 -8 123 5 168 23 86 34 142 35 247 2 29 -9 31 -8 30 10 -1 11
-12 24 -24 29 -13 5 -23 13 -23 18 0 13 -138 11 -195 -3z"/>
<path d="M2300 2774 c0 -3 9 -17 19 -30 11 -13 18 -35 17 -48 -3 -24 -2 -24
21 -9 l23 15 -32 38 c-31 36 -48 48 -48 34z"/>
<path d="M2381 2736 c16 -18 31 -25 42 -20 24 9 21 21 -7 28 -13 3 -32 9 -43
12 -14 5 -12 1 8 -20z"/>
<path d="M3300 2230 c0 -5 5 -10 10 -10 6 0 10 5 10 10 0 6 -4 10 -10 10 -5 0
-10 -4 -10 -10z"/>
<path d="M1430 1925 c-8 -9 -8 -15 -2 -15 12 0 26 19 19 26 -2 2 -10 -2 -17
-11z"/>
<path d="M1905 1786 c21 -32 27 -33 16 -4 -4 12 -14 24 -20 26 -8 3 -7 -5 4
-22z"/>
<path d="M1650 1765 c0 -8 7 -15 15 -15 9 0 12 6 9 15 -4 8 -10 15 -15 15 -5
0 -9 -7 -9 -15z"/>
<path d="M1870 1743 c8 -3 24 -10 35 -16 18 -9 19 -9 6 6 -7 10 -23 17 -35 16
-14 0 -16 -2 -6 -6z"/>
<path d="M2181 1514 c0 -11 3 -14 6 -6 3 7 2 16 -1 19 -3 4 -6 -2 -5 -13z"/>
<path d="M2665 1370 c-8 -13 5 -13 25 0 13 8 13 10 -2 10 -9 0 -20 -4 -23 -10z"/>
<path d="M2760 1359 c0 -5 5 -7 10 -4 6 3 10 8 10 11 0 2 -4 4 -10 4 -5 0 -10
-5 -10 -11z"/>
<path d="M2971 1361 c0 -3 3 -14 7 -23 6 -15 9 -15 29 2 l23 18 -30 4 c-17 3
-30 2 -29 -1z"/>
<path d="M3235 1344 c9 -9 19 -13 23 -10 3 4 0 11 -8 16 -24 15 -33 11 -15 -6z"/>
<path d="M2970 3646 c0 -3 9 -10 20 -16 11 -6 20 -8 20 -6 0 3 -9 10 -20 16
-11 6 -20 8 -20 6z"/>
<path d="M3070 3586 c0 -2 14 -14 30 -26 17 -12 30 -19 30 -16 0 2 -13 14 -30
26 -16 12 -30 19 -30 16z"/>
<path d="M3140 3536 c0 -2 8 -10 18 -17 15 -13 16 -12 3 4 -13 16 -21 21 -21
13z"/>
<path d="M3180 3506 c0 -2 8 -10 18 -17 15 -13 16 -12 3 4 -13 16 -21 21 -21
13z"/>
<path d="M3240 3455 c13 -14 26 -25 28 -25 3 0 -5 11 -18 25 -13 14 -26 25
-28 25 -3 0 5 -11 18 -25z"/>
<path d="M3355 3350 c38 -38 72 -70 74 -70 3 0 -26 32 -64 70 -38 39 -72 70
-74 70 -3 0 26 -31 64 -70z"/>
<path d="M3430 3267 c0 -2 15 -16 33 -33 l32 -29 -29 33 c-28 30 -36 37 -36
29z"/>
<path d="M3490 3196 c0 -2 8 -10 18 -17 15 -13 16 -12 3 4 -13 16 -21 21 -21
13z"/>
<path d="M3520 3156 c0 -2 8 -10 18 -17 15 -13 16 -12 3 4 -13 16 -21 21 -21
13z"/>
<path d="M3586 3068 c20 -32 39 -58 41 -58 7 0 -29 58 -55 88 -13 15 -6 1 14
-30z"/>
<path d="M3645 2970 c9 -16 18 -30 21 -30 2 0 -2 14 -11 30 -9 17 -18 30 -21
30 -2 0 2 -13 11 -30z"/>
</g>
</svg>
